<svg width="56" height="50" viewBox="0 0 56 50" fill="none" xmlns="http://www.w3.org/2000/svg">
<path d="M28.1437 -0.000473022C13.171 -0.000473022 0.523941 11.4459 0.523941 24.9971C0.523941 38.5483 13.171 49.9947 28.1437 49.9947C43.1163 49.9947 55.7634 38.5483 55.7634 24.9971C55.7634 11.4459 43.1163 -0.000473022 28.1437 -0.000473022ZM28.1437 12.4983C32.9136 12.4983 36.4296 15.678 36.4296 19.9976C36.4296 24.3172 32.9136 27.4969 28.1437 27.4969C23.3765 27.4969 19.8578 24.3172 19.8578 19.9976C19.8578 15.678 23.3765 12.4983 28.1437 12.4983ZM14.041 36.926C16.5185 33.6263 20.6504 31.4265 25.3817 31.4265H30.9056C35.6397 31.4265 39.7688 33.6263 42.2463 36.926C38.7165 40.3457 33.709 42.4955 28.1437 42.4955C22.5783 42.4955 17.5708 40.3457 14.041 36.926Z" fill="#281100"/>
</svg>
