<svg width="67" height="60" viewBox="0 0 67 60" fill="none" xmlns="http://www.w3.org/2000/svg">
<path d="M33.1437 4.99953C18.171 4.99953 5.52394 16.4459 5.52394 29.9971C5.52394 43.5483 18.171 54.9947 33.1437 54.9947C48.1163 54.9947 60.7634 43.5483 60.7634 29.9971C60.7634 16.4459 48.1163 4.99953 33.1437 4.99953ZM33.1437 17.4983C37.9136 17.4983 41.4296 20.678 41.4296 24.9976C41.4296 29.3172 37.9136 32.4969 33.1437 32.4969C28.3765 32.4969 24.8578 29.3172 24.8578 24.9976C24.8578 20.678 28.3765 17.4983 33.1437 17.4983ZM19.041 41.926C21.5185 38.6263 25.6504 36.4265 30.3817 36.4265H35.9056C40.6397 36.4265 44.7688 38.6263 47.2463 41.926C43.7165 45.3457 38.709 47.4955 33.1437 47.4955C27.5783 47.4955 22.5708 45.3457 19.041 41.926Z" fill="#281100"/>
</svg>
