<svg width="37" height="37" viewBox="0 0 37 37" fill="none" xmlns="http://www.w3.org/2000/svg">
<path d="M33.6168 15.4806H32.375V15.4167H18.5V21.5833H27.2127C25.9416 25.1731 22.5261 27.75 18.5 27.75C13.3917 27.75 9.25 23.6083 9.25 18.5C9.25 13.3917 13.3917 9.25 18.5 9.25C20.858 9.25 23.0032 10.1395 24.6366 11.5926L28.9972 7.23195C26.2438 4.66585 22.5608 3.08333 18.5 3.08333C9.98615 3.08333 3.08333 9.98614 3.08333 18.5C3.08333 27.0139 9.98615 33.9167 18.5 33.9167C27.0139 33.9167 33.9167 27.0139 33.9167 18.5C33.9167 17.4663 33.8103 16.4573 33.6168 15.4806Z" fill="#FFC107"/>
<path d="M4.86088 11.3243L9.92603 15.039C11.2966 11.6457 14.6158 9.25 18.5 9.25C20.858 9.25 23.0032 10.1395 24.6366 11.5926L28.9972 7.23195C26.2438 4.66585 22.5608 3.08333 18.5 3.08333C12.5785 3.08333 7.44317 6.42643 4.86088 11.3243Z" fill="#FF3D00"/>
<path d="M18.5 33.9167C22.4821 33.9167 26.1004 32.3927 28.8361 29.9145L24.0646 25.8769C22.4648 27.0936 20.5099 27.7516 18.5 27.75C14.4901 27.75 11.0854 25.1932 9.80269 21.625L4.77531 25.4984C7.32677 30.4911 12.5083 33.9167 18.5 33.9167Z" fill="#4CAF50"/>
<path d="M33.6168 15.4807H32.375V15.4167H18.5V21.5833H27.2127C26.6047 23.2918 25.5095 24.7847 24.0623 25.8777L24.0646 25.8761L28.8361 29.9137C28.4985 30.2205 33.9167 26.2083 33.9167 18.5C33.9167 17.4663 33.8103 16.4573 33.6168 15.4807Z" fill="#1976D2"/>
</svg>
